<svg width="22" height="19" viewBox="0 0 22 19" fill="none" xmlns="http://www.w3.org/2000/svg">
<path d="M18.4625 17.8736C18.4625 17.8736 22.8092 0.495427 21.8661 0.0195573C20.9229 -0.456312 0.383281 7.90984 0.383281 7.90984C-1.76893 8.92574 5.84472 10.7972 5.84472 10.7972L18.453 2.94562L8.83622 12.1732C8.83622 12.1732 17.7324 20.6002 18.4625 17.8736Z" fill="white"/>
<path d="M8.83411 12.1709C8.83411 12.1709 7.95108 17.2102 8.4299 17.7238L11.6442 14.657C10.0635 13.3349 8.83411 12.1709 8.83411 12.1709Z" fill="#B3B3B3"/>
<path d="M18.4519 2.94336L5.84375 10.7952C5.84375 10.7952 7.27555 17.0162 8.43087 17.7238C7.95205 17.2102 8.83508 12.171 8.83508 12.171L18.4519 2.94336Z" fill="#E6E6E6"/>
</svg>
