<svg width="60" height="45" viewBox="0 0 60 45" fill="none" xmlns="http://www.w3.org/2000/svg">
<path d="M58.125 37.5H7.5V1.875C7.5 0.839062 6.66094 0 5.625 0H1.875C0.839062 0 0 0.839062 0 1.875V41.25C0 43.3207 1.6793 45 3.75 45H58.125C59.1609 45 60 44.1609 60 43.125V39.375C60 38.3391 59.1609 37.5 58.125 37.5ZM54.375 3.75H40.5398C38.0344 3.75 36.7793 6.7793 38.5512 8.55117L42.348 12.348L33.75 20.9473L25.152 12.3492C23.6871 10.8844 21.3129 10.8844 19.8492 12.3492L11.7996 20.3988C11.0672 21.1313 11.0672 22.3184 11.7996 23.0508L14.4504 25.7016C15.1828 26.434 16.3699 26.434 17.1023 25.7016L22.5 20.3027L31.098 28.9008C32.5629 30.3656 34.9371 30.3656 36.4008 28.9008L47.6508 17.6508L51.4477 21.4477C53.2195 23.2195 56.2488 21.9645 56.2488 19.459V5.625C56.25 4.58906 55.4109 3.75 54.375 3.75Z" fill="url(#paint0_linear_72_3226)"/>
<defs>
<linearGradient id="paint0_linear_72_3226" x1="30" y1="0" x2="30" y2="45" gradientUnits="userSpaceOnUse">
<stop stop-color="#16A5FF"/>
<stop offset="1" stop-color="#0D6399"/>
</linearGradient>
</defs>
</svg>
